<?xml version="1.0" encoding="UTF-8"?>
<svg id="uuid-d4e7098f-af52-4003-b7d9-efce4340f47e" data-name="Layer 1" xmlns="http://www.w3.org/2000/svg" viewBox="4911 738 2954 990">
  <defs>
    <style>
      .uuid-eaf71cc9-b909-4a04-8d38-e3935683360e {
        fill: #fbba17;
      }

      .uuid-a85c90f4-ea04-4bd0-99b2-1baa69dbae8d {
        fill: #2d2d2d;
      }
    </style>
  </defs>
  <g>
    <path class="uuid-a85c90f4-ea04-4bd0-99b2-1baa69dbae8d" d="M6557.56,1623.1c-3.47,4.33-8.67,6.49-15.6,6.49-8.66,0-15.24-3.61-19.71-10.82-4.47-7.21-6.71-19.5-6.71-36.82s2.16-28.37,6.51-35.74c4.32-7.35,10.82-11.04,19.48-11.04,6.64,0,11.54,2.02,14.72,6.06,3.17,4.04,5.33,9.68,6.49,16.89l85.76-7.37c-1.45-11.54-4.47-22.74-9.1-33.56-4.62-10.82-11.04-20.43-19.27-28.8-8.23-8.37-19-15.01-32.26-19.93-13.29-4.9-29.18-7.35-47.66-7.35-36.67,0-65.4,10.75-86.19,32.26-20.79,21.52-31.18,51.77-31.18,90.75,0,17.32,2.31,33.35,6.92,48.07,4.62,14.72,11.76,27.37,21.43,37.91,9.68,10.54,21.89,18.77,36.62,24.69,14.71,5.91,32.04,8.87,51.97,8.87,18.48,0,34.36-2.45,47.64-7.37,13.28-4.9,24.33-11.76,33.13-20.57,8.82-8.8,15.67-19.27,20.59-31.4,4.89-12.13,8.07-25.26,9.52-39.41h-86.62c-.87,7.8-3.03,13.86-6.49,18.19Z"/>
    <path class="uuid-a85c90f4-ea04-4bd0-99b2-1baa69dbae8d" d="M6777.98,1461.11c-38.98,0-69.02,10.75-90.09,32.26-21.07,21.52-31.61,51.48-31.61,89.88s10.02,67.35,30.09,88.59c20.07,21.22,49.88,31.83,89.45,31.83s69.36-10.75,90.31-32.26c20.93-21.52,31.41-51.48,31.41-89.88s-10.12-67.35-30.34-88.59c-20.21-21.22-49.95-31.83-89.22-31.83ZM6802.88,1605.33c-1.29,6.06-3.24,10.91-5.85,14.51-2.59,3.61-5.63,6.14-9.09,7.58-3.47,1.45-7.23,2.16-11.27,2.16-3.76,0-7.37-.72-10.82-2.16-3.47-1.45-6.49-3.97-9.09-7.58-2.59-3.6-4.54-8.44-5.85-14.51-1.3-6.06-1.95-13.71-1.95-22.95s.65-16.89,1.95-22.95c1.3-6.06,3.25-10.9,5.85-14.51,2.59-3.61,5.62-6.14,9.09-7.58,3.46-1.45,7.07-2.16,10.82-2.16,4.04,0,7.8.72,11.27,2.16,3.46,1.45,6.49,3.97,9.09,7.58,2.61,3.61,4.56,8.44,5.85,14.51,1.3,6.06,1.95,13.72,1.95,22.95s-.65,16.89-1.95,22.95Z"/>
    <path class="uuid-a85c90f4-ea04-4bd0-99b2-1baa69dbae8d" d="M7183.79,1461.1c-15.02,0-28.01,2.97-38.98,8.87-10.98,5.92-20.5,13.94-28.59,24.04-5.78-10.68-13.81-18.84-24.04-24.47-10.27-5.63-22.16-8.44-35.74-8.44s-25.33,2.81-35.3,8.44-18.41,13.08-25.33,22.31v-23.83h-90.09v228.7h92.69v-138.16c0-3.47.29-6.21.86-8.23.57-2.02,1.3-3.76,2.18-5.2,3.74-5.48,9.81-8.23,18.18-8.23,4.62,0,8.23,1.38,10.82,4.11,2.61,2.75,3.9,7.44,3.9,14.08v141.63h92.7v-138.16c0-3.47.29-6.21.86-8.23.57-2.02,1.3-3.76,2.16-5.2,3.76-5.48,9.82-8.23,18.21-8.23,4.6,0,8.21,1.38,10.82,4.11,2.59,2.75,3.89,7.44,3.89,14.08v141.63h92.7v-154.19c0-26.28-6.29-46.42-18.84-60.43-12.57-14.01-30.26-21-53.06-21Z"/>
    <path class="uuid-a85c90f4-ea04-4bd0-99b2-1baa69dbae8d" d="M7623.32,1626.13c-7.23,0-13-1.59-17.32-4.77-4.34-3.17-6.51-9.52-6.51-19.05v-61.93h47.21v-72.33h-47.21v-59.34h-92.69v59.34h-37.25v72.33h37.25v67.14c0,16.17,1.52,30.09,4.54,41.79,3.03,11.7,8.01,21.38,14.94,29.02,6.94,7.66,16.03,13.29,27.3,16.9,11.25,3.6,24.97,5.41,41.15,5.41,12.13,0,22.88-.86,32.26-2.59,9.39-1.73,18.85-4.19,28.39-7.35l-11.27-67.14c-7.51,1.72-14.44,2.59-20.79,2.59Z"/>
    <path class="uuid-a85c90f4-ea04-4bd0-99b2-1baa69dbae8d" d="M7817.74,1464.13c-26.85,0-47.78,9.68-62.79,29.02v-25.12h-90.09v228.7h92.69v-115.21c0-15.31,4.9-26.28,14.72-32.93,5.49-3.46,11.2-5.62,17.12-6.49,5.91-.86,11.18-1.29,15.8-1.29,5.78,0,10.75.29,14.94.86,4.19.59,7.87,1.16,11.05,1.73l9.96-76.67c-2.88-.57-6.28-1.15-10.18-1.73-3.9-.57-8.3-.86-13.22-.86Z"/>
    <path class="uuid-eaf71cc9-b909-4a04-8d38-e3935683360e" d="M6312.23,1504.24c-43.15,0-78.14,34.98-78.14,78.13s34.98,78.15,78.14,78.15,78.13-34.98,78.13-78.15-34.98-78.13-78.13-78.13ZM6312.23,1616.14c-18.64,0-33.76-15.11-33.76-33.76s15.13-33.75,33.76-33.75,33.76,15.11,33.76,33.75-15.13,33.76-33.76,33.76Z"/>
    <path class="uuid-eaf71cc9-b909-4a04-8d38-e3935683360e" d="M7362.62,1504.24c-43.15,0-78.13,34.98-78.13,78.13s34.98,78.15,78.13,78.15,78.13-34.98,78.13-78.15-34.98-78.13-78.13-78.13ZM7362.62,1616.14c-18.64,0-33.76-15.11-33.76-33.76s15.12-33.75,33.76-33.75,33.75,15.11,33.75,33.75-15.11,33.76-33.75,33.76Z"/>
    <polygon class="uuid-a85c90f4-ea04-4bd0-99b2-1baa69dbae8d" points="6522.51 1188.31 6560.38 1151.23 6651.14 1325.6 6827.88 1325.6 6673.21 1047.86 6816.03 908.99 6629.03 908.99 6522.51 1021.03 6522.51 762.23 6361.56 762.23 6361.56 1325.6 6522.51 1325.6 6522.51 1188.31"/>
    <path class="uuid-a85c90f4-ea04-4bd0-99b2-1baa69dbae8d" d="M6188.51,1115.73c0-27.88,8.93-47.87,26.82-59.97,9.99-6.32,20.37-10.26,31.15-11.83,10.8-1.59,20.39-2.38,28.82-2.38,10.51,0,19.58.53,27.21,1.58,7.63,1.06,14.32,2.11,20.13,3.17l18.15-139.67c-5.26-1.05-11.44-2.09-18.55-3.15-7.1-1.05-15.12-1.58-24.07-1.58-48.9,0-87.07,17.63-114.41,52.86v-45.76h-164.11v416.61h168.86v-209.87Z"/>
    <path class="uuid-a85c90f4-ea04-4bd0-99b2-1baa69dbae8d" d="M6984.12,1017.09c6.84-5.78,16.3-8.69,28.4-8.69s22.11,3.47,28.4,10.41c6.32,6.92,9.48,18.12,9.48,33.58v14.39l-48.13,1.59c-28.95,1.06-54.58,3.7-76.93,7.89-22.37,4.19-43.78,11.53-64.3,22.02-20,10.48-35.91,25.05-47.74,43.66-11.84,18.62-17.75,41.56-17.75,68.84,0,22.55,4.07,41.69,12.23,57.43,8.14,15.73,18.8,28.72,31.96,38.94,13.13,10.22,28.13,17.71,44.97,22.42,16.83,4.7,33.92,7.07,51.28,7.07,25.25,0,47.47-4.22,66.68-12.62,19.2-8.42,37.19-21.03,54.03-37.88v39.45h152.3v-254.07c0-26.29-3.17-50.22-9.48-71.8-6.31-21.56-16.96-39.97-31.94-55.22-15.01-15.25-34.72-27.1-59.18-35.51-24.47-8.4-54.84-12.63-91.15-12.63-58.39,0-104.14,11.46-137.27,34.32-33.15,22.9-53.15,56.69-59.98,101.39l150.72,11.05c2.09-11.56,6.57-20.24,13.41-26.04ZM7050.39,1166.23c0,18.41-5.92,33.26-17.75,44.57-11.84,11.31-26.97,16.96-45.36,16.96-12.11,0-21.32-2.48-27.61-7.5-6.32-4.99-9.48-12.49-9.48-22.48,0-11.57,4.6-20.63,13.81-27.23,9.2-6.57,23.53-10.38,43.01-11.44l43.38-2.37v9.48Z"/>
    <path class="uuid-a85c90f4-ea04-4bd0-99b2-1baa69dbae8d" d="M5629.61,1307.15c13.15,10.22,28.14,17.71,44.97,22.42,16.83,4.7,33.93,7.07,51.3,7.07,25.25,0,47.45-4.22,66.67-12.62,19.2-8.42,37.2-21.03,54.05-37.88v39.45h152.28v-254.07c0-26.29-3.15-50.22-9.46-71.8-6.32-21.56-16.97-39.97-31.97-55.22-14.98-15.25-34.71-27.1-59.17-35.51-24.47-8.4-54.85-12.63-91.14-12.63-58.38,0-104.16,11.46-137.29,34.32-33.13,22.9-53.13,56.69-59.97,101.39l150.71,11.05c2.09-11.56,6.57-20.24,13.4-26.04,6.84-5.78,16.3-8.69,28.42-8.69s22.09,3.47,28.4,10.41c6.31,6.92,9.48,18.12,9.48,33.58v14.39l-48.13,1.59c-28.95,1.06-54.59,3.7-76.94,7.89-22.35,4.19-43.78,11.53-64.3,22.02-20,10.48-35.9,25.05-47.74,43.66-11.83,18.62-17.75,41.56-17.75,68.84,0,22.55,4.07,41.69,12.23,57.43,8.16,15.73,18.8,28.72,31.96,38.94ZM5753.88,1170.56c9.2-6.57,23.54-10.38,43.01-11.44l43.4-2.37v9.48c0,18.41-5.92,33.26-17.75,44.57-11.84,11.31-26.98,16.96-45.38,16.96-12.11,0-21.3-2.48-27.61-7.5-6.32-4.99-9.48-12.49-9.48-22.48,0-11.57,4.6-20.63,13.81-27.23Z"/>
    <path class="uuid-a85c90f4-ea04-4bd0-99b2-1baa69dbae8d" d="M5104.3,1073.91c0-6.31.53-11.31,1.58-15,1.06-3.67,2.37-6.84,3.96-9.48,6.82-9.98,17.86-14.98,33.13-14.98,8.4,0,15,2.49,19.73,7.5,4.73,5,7.1,13.55,7.1,25.65v258h168.86v-251.69c0-6.31.52-11.31,1.58-15,1.05-3.67,2.37-6.84,3.94-9.48,6.84-9.98,17.88-14.98,33.15-14.98,8.4,0,14.98,2.49,19.73,7.5,4.73,5,7.1,13.55,7.1,25.65v258h168.84v-280.9c0-47.86-11.43-84.54-34.32-110.06-22.87-25.52-55.1-38.28-96.66-38.28-27.35,0-51.02,5.42-70.99,16.19-20,10.78-37.36,25.38-52.08,43.78-10.52-19.45-25.13-34.32-43.8-44.57-18.67-10.27-40.36-15.4-65.09-15.4s-46.15,5.13-64.31,15.4c-18.14,10.25-33.52,23.8-46.15,40.63v-43.4h-164.11v416.61h168.84v-251.69Z"/>
    <path class="uuid-a85c90f4-ea04-4bd0-99b2-1baa69dbae8d" d="M7471.86,1307.15c13.15,10.22,28.13,17.71,44.97,22.42,16.83,4.7,33.92,7.07,51.3,7.07,25.23,0,47.45-4.22,66.67-12.62,19.2-8.42,37.19-21.03,54.05-37.88v39.45h152.28v-254.07c0-26.29-3.17-50.22-9.46-71.8-6.32-21.56-16.98-39.97-31.96-55.22-15.01-15.25-34.72-27.1-59.18-35.51-24.47-8.4-54.84-12.63-91.14-12.63-58.39,0-104.16,11.46-137.29,34.32-33.15,22.9-53.13,56.69-59.98,101.39l150.74,11.05c2.08-11.56,6.55-20.24,13.39-26.04,6.84-5.78,16.31-8.69,28.4-8.69s22.11,3.47,28.42,10.41c6.31,6.92,9.46,18.12,9.46,33.58v14.39l-48.13,1.59c-28.95,1.06-54.58,3.7-76.92,7.89-22.36,4.19-43.8,11.53-64.31,22.02-20,10.48-35.9,25.05-47.74,43.66-11.83,18.62-17.75,41.56-17.75,68.84,0,22.55,4.07,41.69,12.23,57.43,8.14,15.73,18.8,28.72,31.96,38.94ZM7596.13,1170.56c9.2-6.57,23.53-10.38,43.01-11.44l43.38-2.37v9.48c0,18.41-5.92,33.26-17.75,44.57-11.84,11.31-26.97,16.96-45.36,16.96-12.11,0-21.32-2.48-27.61-7.5-6.32-4.99-9.48-12.49-9.48-22.48,0-11.57,4.6-20.63,13.81-27.23Z"/>
    <rect class="uuid-a85c90f4-ea04-4bd0-99b2-1baa69dbae8d" x="7233.9" y="762.23" width="168.86" height="563.37"/>
  </g>
</svg>
