<svg xmlns="http://www.w3.org/2000/svg" viewBox="0 0 64 64" width="64" height="64">
  <rect width="64" height="64" rx="15" fill="#F5B800"/>
  <svg x="13" y="19" width="38" height="26" viewBox="4935 896 638 429" preserveAspectRatio="xMidYMid meet">
    <path fill="#191722" d="M5104.3,1073.91c0-6.31.53-11.31,1.58-15,1.06-3.67,2.37-6.84,3.96-9.48,6.82-9.98,17.86-14.98,33.13-14.98,8.4,0,15,2.49,19.73,7.5,4.73,5,7.1,13.55,7.1,25.65v258h168.86v-251.69c0-6.31.52-11.31,1.58-15,1.05-3.67,2.37-6.84,3.94-9.48,6.84-9.98,17.88-14.98,33.15-14.98,8.4,0,14.98,2.49,19.73,7.5,4.73,5,7.1,13.55,7.1,25.65v258h168.84v-280.9c0-47.86-11.43-84.54-34.32-110.06-22.87-25.52-55.1-38.28-96.66-38.28-27.35,0-51.02,5.42-70.99,16.19-20,10.78-37.36,25.38-52.08,43.78-10.52-19.45-25.13-34.32-43.8-44.57-18.67-10.27-40.36-15.4-65.09-15.4s-46.15,5.13-64.31,15.4c-18.14,10.25-33.52,23.8-46.15,40.63v-43.4h-164.11v416.61h168.84v-251.69Z"/>
  </svg>
</svg>
